<svg xmlns="http://www.w3.org/2000/svg" width="64" height="64" viewBox="0 0 64 64" role="img" aria-label="stylized menu profile icon">
  <defs>
    <linearGradient id="bg" x1="10" y1="4" x2="56" y2="62" gradientUnits="userSpaceOnUse">
      <stop offset="0" stop-color="#fff3f7"/>
      <stop offset="1" stop-color="#e9f2ec"/>
    </linearGradient>
    <clipPath id="round">
      <circle cx="32" cy="32" r="30"/>
    </clipPath>
  </defs>
  <circle cx="32" cy="32" r="30" fill="url(#bg)"/>
  <g clip-path="url(#round)">
    <path d="M22 16c3-9 21-13 29 0 8 13 4 33-2 48H18c-5-18-7-38 4-48z" fill="#171416"/>
    <path d="M19 27c1-13 8-21 18-20 12 1 19 11 17 24-2 14-10 21-18 21S18 41 19 27z" fill="#f5d3c8"/>
    <path d="M18 29c.7-9 5.6-18.4 15.2-20.8 2.6 6.9 9.2 10.6 19.4 11.2 2.5 9.7-.7 21-5.8 28.2 5.3-9.8 2.4-23-2.6-27.4-5.5 1.6-13.7-.7-18-5.1-3.5 3.7-5.8 9.1-8.2 13.9z" fill="#111013"/>
    <path d="M25 43c5.1 4.6 12.6 4.8 17 0 5.2 1.8 9.2 6.4 10.8 13.6H14.2C15.9 49.4 19.9 44.8 25 43z" fill="#ffffff"/>
    <path d="M24.5 50.2c2.2-2.1 5.3-2 7.2.2-1.9 1-4.1 1.8-6.5 2.3-1.7 3-4.6 3.2-7.3 1.9 1.2-2.4 3.3-3.6 6.6-4.4z" fill="#f5b7cf"/>
    <circle cx="22" cy="51" r="3.2" fill="#f1a8c2"/>
    <circle cx="28" cy="49" r="3.1" fill="#f7c4d6"/>
    <circle cx="31.5" cy="53" r="2.7" fill="#ffffff"/>
    <circle cx="31.5" cy="53" r=".9" fill="#f3cf3f"/>
    <path d="M34.2 51.7c2.8-1.2 4.8-.5 6.1 1.7-2.2.7-4.4.4-6.4-1.1z" fill="#87a778"/>
    <path d="M23 29.5c2.1-1.4 4.5-1.3 6.4.1M37.6 29.6c2-1.5 4.4-1.5 6.3-.1" fill="none" stroke="#2b2728" stroke-width="1.8" stroke-linecap="round"/>
    <path d="M31 38c2.2 1.4 4.8 1.4 7 0" fill="none" stroke="#c77975" stroke-width="1.7" stroke-linecap="round"/>
  </g>
  <circle cx="32" cy="32" r="30" fill="none" stroke="#ffffff" stroke-width="2"/>
</svg>
